<svg width="36" height="36" viewBox="0 0 36 36" fill="none" xmlns="http://www.w3.org/2000/svg">
<path d="M32.16 16.575L18.375 30.36C16.6862 32.0488 14.3958 32.9975 12.0075 32.9975C9.61923 32.9975 7.32877 32.0488 5.64001 30.36C3.95124 28.6712 3.0025 26.3808 3.0025 23.9925C3.0025 21.6042 3.95124 19.3138 5.64001 17.625L19.425 3.84C20.5509 2.71416 22.0778 2.08167 23.67 2.08167C25.2622 2.08167 26.7892 2.71416 27.915 3.84C29.0409 4.96585 29.6733 6.49282 29.6733 8.085C29.6733 9.67718 29.0409 11.2042 27.915 12.33L14.115 26.115C13.5521 26.6779 12.7886 26.9942 11.9925 26.9942C11.1964 26.9942 10.4329 26.6779 9.87001 26.115C9.30709 25.5521 8.99084 24.7886 8.99084 23.9925C8.99084 23.1964 9.30709 22.4329 9.87001 21.87L22.605 9.15" stroke="black" stroke-width="2" stroke-linecap="round" stroke-linejoin="round"/>
</svg>
