<svg width="96" height="24" viewBox="0 0 96 24" fill="none" xmlns="http://www.w3.org/2000/svg">
<path d="M12 0L14.6942 8.2918H23.4127L16.3593 13.4164L19.0534 21.7082L12 16.5836L4.94658 21.7082L7.64074 13.4164L0.587322 8.2918H9.30583L12 0Z" fill="#FCB017"/>
<path d="M30 0L32.6942 8.2918H41.4127L34.3593 13.4164L37.0534 21.7082L30 16.5836L22.9466 21.7082L25.6407 13.4164L18.5873 8.2918H27.3058L30 0Z" fill="#FCB017"/>
<path d="M48 0L50.6942 8.2918H59.4127L52.3593 13.4164L55.0534 21.7082L48 16.5836L40.9466 21.7082L43.6407 13.4164L36.5873 8.2918H45.3058L48 0Z" fill="#FCB017"/>
<path d="M66 0L68.6942 8.2918H77.4127L70.3593 13.4164L73.0534 21.7082L66 16.5836L58.9466 21.7082L61.6407 13.4164L54.5873 8.2918H63.3058L66 0Z" fill="#FCB017"/>
<path d="M84 0L86.6942 8.2918H95.4127L88.3593 13.4164L91.0534 21.7082L84 16.5836L76.9466 21.7082L79.6407 13.4164L72.5873 8.2918H81.3058L84 0Z" fill="#FCB017"/>
</svg>
